<svg width="24" height="24" viewBox="0 0 24 24" fill="none" xmlns="http://www.w3.org/2000/svg">
<g clip-path="url(#clip0_2_228)">
<path d="M23.9598 14.6345L23.9634 14.6333L20.023 6.03572L20.9786 5.56013L20.621 4.84413L19.6894 5.30813L19.5634 5.03333C19.4713 4.83253 19.2339 4.74439 19.0331 4.83643C18.946 4.87638 18.8762 4.94623 18.8363 5.03333L18.7239 5.27893C18.0459 4.96403 17.3074 4.80063 16.5599 4.80013H13.1999V4.00014H13.9999V3.20015H13.3123L13.5999 2.04936C13.8207 1.16571 13.2834 0.270372 12.3998 0.0495239C11.5161 -0.171274 10.6208 0.366021 10.3999 1.24966C10.3343 1.51216 10.3343 1.78681 10.3999 2.04931L10.6875 3.2001H9.99992V4.00009H10.7999V4.80008H7.44194C6.69365 4.80068 5.95446 4.96448 5.27596 5.28008L5.16356 5.03448C5.07151 4.83368 4.83407 4.74553 4.63327 4.83758C4.54617 4.87753 4.47632 4.94738 4.43637 5.03448L4.31037 5.30928L3.37878 4.84328L3.02118 5.56008L3.97677 6.03767L0.036405 14.6333C0.0121052 14.6855 -0.000294681 14.7425 5.31624e-06 14.8001C0.0017553 16.3457 1.25434 17.5983 2.79998 17.6H6.79995C8.34559 17.5983 9.59818 16.3457 9.59993 14.8001C9.59893 14.7426 9.58528 14.6861 9.55993 14.6345L5.60876 6.00452C6.1831 5.73793 6.80875 5.59993 7.44194 5.60013H10.7999V20.2344L9.43433 21.6H7.99994C6.89595 21.6013 6.00126 22.496 5.99996 23.6C5.99996 23.8209 6.17905 24 6.39995 24H17.5999C17.8208 24 17.9999 23.8209 17.9999 23.6C17.9986 22.496 17.1039 21.6013 15.9999 21.6H14.5655L13.1999 20.2344V5.60013H16.5599C17.1931 5.59993 17.8187 5.73793 18.3931 6.00452L14.4363 14.6333C14.412 14.6855 14.3996 14.7425 14.3999 14.8001C14.4016 16.3457 15.6542 17.5983 17.1999 17.6H21.1998C22.7455 17.5983 23.9981 16.3457 23.9998 14.8001C23.9989 14.7426 23.9852 14.6861 23.9598 14.6345ZM6.79995 16.8H2.79998C1.84989 16.799 1.03125 16.1307 0.839998 15.2H8.75993C8.56873 16.1307 7.75004 16.799 6.79995 16.8ZM8.57673 14.4001H1.0232L4.69757 6.38372C4.76467 6.40172 4.83527 6.40172 4.90237 6.38372L8.57673 14.4001ZM11.3307 1.12656C11.6422 0.756968 12.1944 0.709918 12.564 1.02142C12.6019 1.05342 12.6371 1.08862 12.6691 1.12656C12.8309 1.33236 12.888 1.60156 12.8239 1.85536L12.4875 3.20015H11.5123L11.1759 1.85536C11.1118 1.60156 11.169 1.33236 11.3307 1.12656ZM11.5999 4.80013V4.00014H12.3999V4.80013H11.5999ZM12.3999 5.60013V20H11.5999V5.60013H12.3999ZM15.9999 22.4C16.5083 22.4006 16.9613 22.7209 17.1315 23.2H6.86835C7.0385 22.7209 7.49154 22.4006 7.99994 22.4H15.9999ZM13.4343 21.6H10.5655L11.3655 20.8H12.6343L13.4343 21.6ZM19.0966 6.38492C19.1627 6.40817 19.2351 6.40517 19.299 6.37652L22.9766 14.4001H15.4231L19.0966 6.38492ZM21.1998 16.8H17.1999C16.2498 16.799 15.4311 16.1307 15.2399 15.2H23.1598C22.9686 16.1307 22.1499 16.799 21.1998 16.8Z" fill="black"/>
</g>
<defs>
<clipPath id="clip0_2_228">
<rect width="24" height="24" fill="white"/>
</clipPath>
</defs>
</svg>
