<svg width="25" height="25" viewBox="0 0 25 25" fill="none" xmlns="http://www.w3.org/2000/svg">
<path d="M7.97519 19.4454C6.53372 19.4454 5.36523 20.614 5.36523 22.0554C5.36523 23.4969 6.53377 24.6653 7.97519 24.6653C9.41666 24.6653 10.5851 23.4968 10.5851 22.0554C10.5852 20.614 9.41666 19.4454 7.97519 19.4454ZM7.97519 23.5054C7.17438 23.5054 6.52523 22.8562 6.52523 22.0554C6.52523 21.2546 7.17438 20.6055 7.97519 20.6055C8.77599 20.6055 9.42515 21.2546 9.42515 22.0554C9.42521 22.8562 8.77599 23.5054 7.97519 23.5054Z" fill="black"/>
<path d="M18.9947 19.4454C17.5533 19.4454 16.3848 20.614 16.3848 22.0554C16.3848 23.4969 17.5533 24.6653 18.9947 24.6653C20.4361 24.6653 21.6047 23.4968 21.6047 22.0554C21.6047 20.614 20.4362 19.4454 18.9947 19.4454ZM18.9947 23.5054C18.1939 23.5054 17.5448 22.8562 17.5448 22.0554C17.5448 21.2546 18.1939 20.6055 18.9947 20.6055C19.7955 20.6055 20.4447 21.2546 20.4447 22.0554C20.4447 22.8562 19.7955 23.5054 18.9947 23.5054Z" fill="black"/>
<path d="M24.8818 4.2206C24.761 4.08866 24.5958 4.00607 24.4178 3.98858L5.53897 3.72759L5.01698 2.13259C4.64924 1.06635 3.65078 0.346529 2.52298 0.334595H0.579997C0.259663 0.334595 0 0.594258 0 0.91459C0 1.23492 0.259663 1.49459 0.579997 1.49459H2.52298C3.1536 1.50852 3.70889 1.91344 3.91499 2.50959L7.59796 13.6165L7.30799 14.2835C6.98455 15.1175 7.08169 16.0563 7.56898 16.8064C8.05162 17.5432 8.86358 17.998 9.74399 18.0244H21.0249C21.3452 18.0244 21.6049 17.7648 21.6049 17.4444C21.6049 17.1241 21.3452 16.8644 21.0249 16.8644H9.74393C9.24675 16.852 8.78909 16.5905 8.52593 16.1684C8.26571 15.7516 8.21226 15.238 8.38095 14.7764L8.61297 14.2544L20.8219 12.9784C22.1629 12.8307 23.2661 11.8554 23.5769 10.5424L24.9689 4.71351C25.0316 4.54566 24.9983 4.35688 24.8818 4.2206ZM22.4458 10.2815C22.2576 11.1267 21.54 11.7501 20.6769 11.8185L8.61297 13.0655L5.91598 4.88758L23.6928 5.14858L22.4458 10.2815Z" fill="black"/>
</svg>
