<svg width="24" height="24" viewBox="0 0 24 24" fill="none" xmlns="http://www.w3.org/2000/svg">
<path d="M17.1949 2.06559C15.1929 2.05489 13.2896 2.93416 12 4.46556C10.7184 2.92369 8.80988 2.04192 6.80503 2.06559C3.0467 2.06559 0 5.11229 0 8.87062C0 15.3112 11.2405 21.5997 11.6962 21.8428C11.8801 21.9656 12.1199 21.9656 12.3038 21.8428C12.7595 21.5997 24 15.4023 24 8.87062C24 5.11229 20.9532 2.06559 17.1949 2.06559ZM12 20.6276C10.238 19.5947 1.21519 14.096 1.21519 8.87062C1.21519 5.78344 3.71785 3.28072 6.80508 3.28072C8.69561 3.25589 10.4648 4.20947 11.4836 5.80222C11.6904 6.08744 12.0893 6.151 12.3746 5.94411C12.4291 5.90457 12.477 5.85671 12.5164 5.80222C14.206 3.21839 17.6702 2.49339 20.2541 4.1829C21.8358 5.21719 22.7879 6.98067 22.7848 8.87056C22.7848 14.1567 13.762 19.625 12 20.6276Z" fill="black"/>
</svg>
